<svg width="43" height="30" viewBox="0 0 43 30" fill="none" xmlns="http://www.w3.org/2000/svg">
<path d="M14.9689 5.3916C15.8939 5.3916 16.7484 5.46161 17.5324 5.67163C18.3165 5.81165 18.9596 6.10043 19.5322 6.45048C20.1048 6.80052 20.5277 7.29932 20.8184 7.93815C21.1003 8.57697 21.25 9.35581 21.25 10.2047C21.25 11.1935 21.0386 12.0424 20.5365 12.6812C20.1048 13.32 19.4 13.8888 18.5367 14.3089C19.7524 14.6589 20.6774 15.2978 21.2412 16.1466C21.805 16.9955 22.1662 18.0543 22.1662 19.262C22.1662 20.2508 21.9548 21.0997 21.5936 21.8085C21.2412 22.5173 20.6686 23.1562 20.0255 23.5762C19.3824 24.005 18.5984 24.3551 17.7439 24.5651C16.8893 24.7751 16.0348 24.9151 15.1803 24.9151L5.6308 24.9326V5.3916H14.9689ZM14.3963 13.32C15.1803 13.32 15.8234 13.11 16.3167 12.7512C16.8101 12.3924 17.0303 11.7623 17.0303 10.9835C17.0303 10.5547 16.9598 10.1347 16.8189 9.85462C16.6779 9.57459 16.4665 9.35581 16.1758 9.14579C15.8939 9.00577 15.6032 8.86576 15.2508 8.79575C14.8984 8.72574 14.5372 8.72574 14.1143 8.72574H9.98269V13.3288C9.98269 13.32 14.3963 13.32 14.3963 13.32ZM14.6077 21.6773C15.0393 21.6773 15.4622 21.6072 15.8234 21.5372C16.1758 21.4672 16.537 21.3272 16.8189 21.1084C17.1008 20.8897 17.321 20.6796 17.5324 20.3296C17.6734 19.9796 17.8143 19.5508 17.8143 19.0519C17.8143 18.0631 17.5324 17.3542 16.9598 16.8554C16.3872 16.4266 15.6032 16.2166 14.6782 16.2166H9.98269V21.6685H14.6077V21.6773Z" fill="white"/>
<path d="M27.9498 21.1173C28.5224 21.6861 29.377 21.9661 30.5134 21.9661C31.2974 21.9661 32.011 21.7561 32.5836 21.3973C33.1562 20.9685 33.5086 20.5484 33.6496 20.1196H37.1381C36.5655 21.8173 35.711 23.025 34.5746 23.8038C33.4381 24.5126 32.0815 24.9327 30.4429 24.9327C29.3065 24.9327 28.3022 24.7227 27.3772 24.3639C26.4522 24.0138 25.7386 23.515 25.0955 22.8062C24.4524 22.1674 23.9591 21.3885 23.6684 20.4697C23.316 19.5508 23.1663 18.562 23.1663 17.4243C23.1663 16.3654 23.3072 15.3678 23.6684 14.449C24.0296 13.5301 24.5229 12.7513 25.166 12.0424C25.8091 11.4036 26.5932 10.8348 27.4477 10.4848C28.3727 10.1347 29.2977 9.91595 30.4429 9.91595C31.6586 9.91595 32.7246 10.126 33.6496 10.6248C34.5746 11.1236 35.2881 11.6837 35.8607 12.5325C36.4334 13.3113 36.8562 14.2302 37.1469 15.2191C37.2879 16.2079 37.3584 17.2055 37.2879 18.3344H26.9543C26.9543 19.4896 27.3772 20.5484 27.9498 21.1173ZM32.4427 13.6789C31.9405 13.1801 31.1565 12.9 30.2315 12.9C29.5884 12.9 29.0951 13.0401 28.6634 13.2501C28.2317 13.4601 27.9498 13.7489 27.6679 14.0289C27.386 14.309 27.2362 14.6677 27.1658 15.0178C27.0953 15.3678 27.0248 15.6566 27.0248 15.9366H33.4381C33.2972 14.8865 32.936 14.1777 32.4427 13.6789ZM26.1703 6.24927H34.1517V8.15699H26.1703V6.24927Z" fill="white"/>
</svg>
