<svg width="34" height="35" viewBox="0 0 34 35" fill="none" xmlns="http://www.w3.org/2000/svg">
<path d="M16.9211 17.1619C16.9211 16.101 17.3425 15.0836 18.0927 14.3335C18.8428 13.5833 19.8602 13.1619 20.9211 13.1619C21.982 13.1619 22.9994 13.5833 23.7496 14.3335C24.4997 15.0836 24.9212 16.101 24.9212 17.1619C24.9212 18.2228 24.4997 19.2402 23.7496 19.9904C22.9994 20.7405 21.982 21.1619 20.9211 21.1619C19.8602 21.1619 18.8428 20.7405 18.0927 19.9904C17.3425 19.2402 16.9211 18.2228 16.9211 17.1619V17.1619Z" stroke="white" stroke-width="1.12001"/>
<path d="M8.92102 25.1622C8.92102 24.1013 9.34245 23.0838 10.0926 22.3337C10.8428 21.5835 11.8602 21.1621 12.9211 21.1621H16.9211V25.1622C16.9211 26.223 16.4997 27.2405 15.7495 27.9906C14.9994 28.7408 13.9819 29.1622 12.9211 29.1622C11.8602 29.1622 10.8428 28.7408 10.0926 27.9906C9.34245 27.2405 8.92102 26.223 8.92102 25.1622Z" stroke="white" stroke-width="1.12001"/>
<path d="M16.9211 5.16211V13.1622H20.9211C21.982 13.1622 22.9994 12.7408 23.7496 11.9906C24.4997 11.2405 24.9212 10.223 24.9212 9.16215C24.9212 8.10127 24.4997 7.08385 23.7496 6.33369C22.9994 5.58354 21.982 5.16211 20.9211 5.16211H16.9211Z" stroke="white" stroke-width="1.12001"/>
<path d="M8.92102 9.16215C8.92102 10.223 9.34245 11.2405 10.0926 11.9906C10.8428 12.7408 11.8602 13.1622 12.9211 13.1622H16.9211V5.16211H12.9211C11.8602 5.16211 10.8428 5.58354 10.0926 6.33369C9.34245 7.08385 8.92102 8.10127 8.92102 9.16215Z" stroke="white" stroke-width="1.12001"/>
<path d="M8.92102 17.1619C8.92102 18.2228 9.34245 19.2402 10.0926 19.9904C10.8428 20.7405 11.8602 21.1619 12.9211 21.1619H16.9211V13.1619H12.9211C11.8602 13.1619 10.8428 13.5833 10.0926 14.3335C9.34245 15.0836 8.92102 16.101 8.92102 17.1619Z" stroke="white" stroke-width="1.12001"/>
</svg>
