<svg width="34" height="34" viewBox="0 0 34 34" fill="none" xmlns="http://www.w3.org/2000/svg">
<path d="M28.3861 7.32332V27.0012C28.3861 27.4511 28.2074 27.8826 27.8892 28.2007C27.5711 28.5188 27.1396 28.6975 26.6897 28.6975H7.01186C6.56195 28.6975 6.13048 28.5188 5.81235 28.2007C5.49421 27.8826 5.31549 27.4511 5.31549 27.0012V7.32332C5.31549 6.87342 5.49421 6.44194 5.81235 6.12381C6.13048 5.80568 6.56195 5.62695 7.01186 5.62695H26.6897C27.1396 5.62695 27.5711 5.80568 27.8892 6.12381C28.2074 6.44194 28.3861 6.87342 28.3861 7.32332ZM12.101 14.4481H8.70823V25.3048H12.101V14.4481ZM12.4063 10.7161C12.4081 10.4594 12.3593 10.205 12.2628 9.96717C12.1662 9.72939 12.0237 9.51296 11.8435 9.33023C11.6633 9.1475 11.4489 9.00206 11.2125 8.90221C10.9761 8.80235 10.7223 8.75005 10.4657 8.74827H10.4046C9.8827 8.74827 9.38219 8.95559 9.01316 9.32462C8.64413 9.69365 8.43681 10.1942 8.43681 10.7161C8.43681 11.2379 8.64413 11.7385 9.01316 12.1075C9.38219 12.4765 9.8827 12.6838 10.4046 12.6838C10.6612 12.6902 10.9166 12.6458 11.1561 12.5534C11.3957 12.461 11.6146 12.3223 11.8005 12.1452C11.9864 11.9682 12.1356 11.7562 12.2395 11.5214C12.3435 11.2867 12.4001 11.0338 12.4063 10.7771V10.7161ZM24.9934 18.7093C24.9934 15.4455 22.917 14.1766 20.8542 14.1766C20.1788 14.1428 19.5064 14.2867 18.9039 14.5939C18.3015 14.901 17.7901 15.3608 17.4208 15.9273H17.3258V14.4481H14.1366V25.3048H17.5293V19.5304C17.4803 18.939 17.6666 18.3521 18.0477 17.8973C18.4289 17.4424 18.9741 17.1564 19.565 17.1012H19.6939C20.7728 17.1012 21.5735 17.7797 21.5735 19.4897V25.3048H24.9662L24.9934 18.7093Z" fill="white"/>
</svg>
